<?xml version="1.0" encoding="UTF-8"?><svg xmlns="http://www.w3.org/2000/svg" viewBox="0 0 220.14 275.3"><defs><style>.d{fill:#44bcc5;}</style></defs><g id="a"/><g id="b"><g id="c"><g><path class="d" d="M132.56,227.97s.13-.73,.3-2.23l-.3,2.23Z"/><path class="d" d="M148.8,24.07l-.64,1.03c.41-.66,.64-1.03,.64-1.03Z"/><path class="d" d="M132.27,46.85c6.56-7.06,13.74-18.29,15.89-21.74C127.58-.67,110.08,1.45,110.07,1.45c0,0-17.51-2.12-38.09,23.66,2.15,3.45,9.32,14.67,15.89,21.74"/><path class="d" d="M71.34,24.07s.23,.37,.64,1.03l-.64-1.03Z"/><path class="d" d="M109.41,175.15v83.53c.42-.07,.67-.12,.67-.12h0v-83.42h0c-.21,0-.44,0-.67,0Z"/><path class="d" d="M112.67,113.85c1.48-1.75,3.2-4.61,4.02-9,1.6-8.55-14.82-8.55-13.22,0,.82,4.39,2.54,7.25,4.02,9,1.36,1.61,3.83,1.61,5.19,0Zm-2.6-4.54c-2.53,0-4.58-2.05-4.58-4.58s2.05-4.58,4.58-4.58,4.58,2.05,4.58,4.58-2.05,4.58-4.58,4.58Z"/><polygon class="d" points="90.63 136.17 90.63 179.1 92.8 135.3 90.63 136.17"/><path class="d" d="M53.58,65.7l-8.24,2.77c-1.7,.57-2.86,2.13-2.92,3.92l-.15,4.57s-23.73,9.81-24.36,10.44,.05,3.48,1.6,5.75c1.55,2.27,2.95,1.74,3.14,1.06,.19-.68,15.61-7.59,18.71-8.6,3.09-1.02,5.17,.58,5.17,.58,.39-6.19,8.74-19.01,8.74-19.01l-1.7-1.48Z"/><path class="d" d="M88.98,136.75s-5.8,.92-10.83,11.67c-17.47-11.24-18.56-25.23-18.56-25.23,0,0,40.12,8.34,38.77-.94-1.35-9.28-19.14-15.66-31.71-25.04-12.57-9.38-20.11-11.02-20.11-11.02,0,0,.22,5.9,2.39,10.32,2.18,4.42,4.37,12.88,2.92,20.42-1.45,7.54-10.73,3.87-4.45,12.67,5.99,8.39,27.58,20.6,29.58,21.72-5.07,14.26-11.58,53.94,10.59,76.65,0,0-1.69-9.72-1.02-31.47,.68-21.75,2.42-59.75,2.42-59.75Zm-29.46-36.83s.15,3.41,3.92,8.9,8.57,5.02,8.57,5.02c-6.22-1.52-8.65-12.33-8.65-12.33,0,0,2.47,0,10.37,4.57,7.9,4.57,18.78,15.01,17.98,15.3-.8,.29-7.11-.15-11.67-2.59-4.57-2.44-14.57-1.84-16.53-3.36-1.96-1.52,.07-3.84-2.47-5.87-2.54-2.03-5.29-11.31-5.29-11.31l3.77,1.67Z"/><path class="d" d="M58.86,145.25l-11.36-11.3s-10.94,53.05,24.32,88.3c0,0-28.83-38.44-12.96-77Z"/><path class="d" d="M61.04,148.26s-9.86,18.27,6.86,49.79c0,0-10.63-20.69-3.19-47.08l-3.67-2.71Z"/><path class="d" d="M219.52,40.24c-4.91-3.98-11.08-6.08-17.4-5.93l-6.71,.15c-1.58,.04-3.1,.64-4.27,1.69l-27.76,24.83s-8.7-4.86-9.14-9.57c-.44-4.71,10.95-13.92-5.44-27.34,0,0-.23,.37-.64,1.03l.64-1.03S131.09,0,110.07,0s-38.73,24.07-38.73,24.07l.64,1.03c-.41-.66-.64-1.03-.64-1.03-16.39,13.41-5,22.62-5.44,27.34-.44,4.71-9.14,9.57-9.14,9.57l-27.76-24.83c-1.18-1.05-2.69-1.65-4.27-1.69l-6.71-.15c-6.32-.15-12.49,1.96-17.4,5.93-.59,.48-.78,1.32-.48,2.02H.14c2.58,6.1,8.28,10.37,14.88,10.99,4.79,.45,9.66-.18,14.24-1.88l5.53-2.06,20.83,18.18c9.76,8.85,12.96,3.63,19.96-.82,3.6-2.28,8.42-6.03,12.26-9.14-.41-1.7-.63-3.48-.63-5.31s.22-3.64,.64-5.36c-6.56-7.06-13.74-18.29-15.89-21.74C92.56-.67,110.07,1.45,110.07,1.45c0,0,17.51-2.12,38.09,23.66-2.15,3.45-9.32,14.67-15.89,21.74,.41,1.72,.64,3.51,.64,5.36,0,12.61-10.23,22.84-22.84,22.84v17.93c-4.34,0-8.68,1.62-10.38,4.85-3.41,6.47,.14,8.4,3.17,16.3,1.51,3.95,4.36,5.93,7.21,5.93v11.14h0c-4.05,0-4.46,1.16-7.07,2.85-2.61,1.69-6.72,.53-6.72,.53l-.63,34.03c5.51-6.96,14.42-7.11,14.42-7.11,0,0,.4,0,1.06,.08,1.82,.22,6.54,1.16,4.68,4.94-1.69,3.39-7.23,3.93-7.23,3.93h0c-3.05,.18-6.07,.92-8.9,2.23-1.66,.77-3.24,1.73-4.49,2.91l-.68,.71c-.61,.7-1.09,1.47-1.42,2.31-2.12,5.42-1.66,54.7-1.77,78.22-.05,10.13,8.12,18.39,18.25,18.46,.16,0,.32,0,.49,0s.33,0,.49,0c10.13-.08,18.3-8.33,18.25-18.46-.03-7.68,0-18.11-.03-28.86h.98c1.78,0,3.53-.72,4.7-2.07,19.89-22.98,13.61-60.75,8.69-74.59,2-1.12,23.59-13.33,29.58-21.72,6.28-8.8-3-5.12-4.45-12.67-1.45-7.54,.75-16,2.92-20.42,2.18-4.42,2.39-10.32,2.39-10.32,0,0,2.08-1.6,5.17-.58,3.09,1.02,18.51,7.93,18.71,8.6,.19,.68,1.6,1.21,3.14-1.06,1.55-2.27,2.22-5.12,1.6-5.75s-24.36-10.44-24.36-10.44l-.15-4.57c-.06-1.79-1.22-3.35-2.92-3.92l-8.24-2.77-.57,.5,19.36-16.89,5.53,2.06c4.59,1.71,9.46,2.33,14.24,1.88,6.6-.62,12.3-4.88,14.88-10.99h0c.3-.7,.11-1.54-.48-2.02ZM94.52,197.07v55.99c-.53-1.22-.86-2.68-.93-4.42-.34-9.06,.06-34.52,.93-51.57Zm1,57.75v-71c.16-1.26,.34-2.18,.51-2.69,.13-.37,.29-.71,.47-1.03v75.83c-.35-.34-.69-.71-.99-1.12Zm3.05,2.6c-.37-.19-.72-.41-1.06-.66v-77.97c.32-.33,.68-.64,1.06-.91v79.54Zm8.9-143.57c-1.48-1.75-3.2-4.61-4.02-9-1.59-8.55,14.82-8.55,13.22,0-.82,4.39-2.54,7.25-4.02,9-1.36,1.61-3.83,1.61-5.19,0Zm-3.76,61.94v83.07c-.28-.03-.56-.06-.84-.11v-82.77c.28-.07,.56-.14,.84-.2Zm-2.76,.82c.3-.12,.6-.22,.91-.32v82.29c-.3-.06-.61-.14-.91-.22v-81.75Zm4.4,82.35c-.21,0-.42-.01-.64-.02v-83.35c.21-.04,.43-.08,.64-.11v83.48Zm2.38-83.73c.23-.02,.45-.03,.67-.04v83.63c-.21,.02-.43,.04-.67,.06v-83.66Zm51.36-65.66c-2.54,2.03-.51,4.35-2.47,5.87-1.96,1.52-11.96,.92-16.53,3.36-4.57,2.44-10.88,2.88-11.67,2.59-.8-.29,10.08-10.73,17.98-15.3,7.9-4.57,10.37-4.57,10.37-4.57,0,0-2.43,10.8-8.65,12.33,0,0,4.8,.47,8.57-5.02,3.77-5.49,3.92-8.9,3.92-8.9l3.77-1.67s-2.76,9.28-5.29,11.31Z"/><path class="d" d="M161.28,145.25c15.88,38.56-12.96,77-12.96,77,35.25-35.25,24.32-88.3,24.32-88.3l-11.36,11.3Z"/><path class="d" d="M159.1,148.26l-3.67,2.71c7.44,26.39-3.19,47.08-3.19,47.08,16.73-31.52,6.86-49.79,6.86-49.79Z"/></g></g></g></svg>